<svg width="11" height="6" viewBox="0 0 11 6" fill="none" xmlns="http://www.w3.org/2000/svg">
<path d="M0.270887 0.253122C0.185052 0.332673 0.116923 0.427317 0.0704302 0.531595C0.0239371 0.635873 0 0.747721 0 0.860687C0 0.973653 0.0239371 1.0855 0.0704302 1.18978C0.116923 1.29406 0.185052 1.3887 0.270887 1.46825L4.84979 5.74688C4.93493 5.82708 5.03622 5.89074 5.14781 5.93419C5.25941 5.97763 5.37911 6 5.5 6C5.62089 6 5.74059 5.97763 5.85219 5.93419C5.96378 5.89074 6.06507 5.82708 6.15021 5.74688L10.7291 1.46825C10.8149 1.3887 10.8831 1.29406 10.9296 1.18978C10.9761 1.0855 11 0.973653 11 0.860687C11 0.747721 10.9761 0.635873 10.9296 0.531595C10.8831 0.427317 10.8149 0.332673 10.7291 0.253122C10.644 0.172916 10.5427 0.109255 10.4311 0.0658112C10.3195 0.022367 10.1998 0 10.0789 0C9.95801 0 9.83832 0.022367 9.72672 0.0658112C9.61512 0.109255 9.51384 0.172916 9.4287 0.253122L5.5 3.93274L1.5713 0.253122C1.48616 0.172916 1.38488 0.109255 1.27328 0.0658112C1.16168 0.022367 1.04199 0 0.921092 0C0.800198 0 0.6805 0.022367 0.568903 0.0658112C0.457307 0.109255 0.35602 0.172916 0.270887 0.253122Z" fill="#034EA2"/>
</svg>
