<svg width="22" height="22" viewBox="0 0 22 22" fill="none" xmlns="http://www.w3.org/2000/svg">
<path d="M17 16.3723L13.6479 13.0202C14.4534 12.0532 14.8551 10.8129 14.7693 9.55728C14.6836 8.30166 14.1171 7.12742 13.1877 6.27884C12.2583 5.43026 11.0375 4.97267 9.77925 5.00126C8.52103 5.02986 7.32227 5.54243 6.43235 6.43235C5.54243 7.32227 5.02986 8.52103 5.00126 9.77925C4.97267 11.0375 5.43026 12.2583 6.27884 13.1877C7.12742 14.1171 8.30166 14.6836 9.55728 14.7693C10.8129 14.8551 12.0532 14.4534 13.0202 13.6479L16.3723 17L17 16.3723ZM5.90343 9.8982C5.90343 9.10811 6.13772 8.33576 6.57667 7.67883C7.01562 7.02189 7.63952 6.50987 8.36947 6.20752C9.09942 5.90516 9.90263 5.82605 10.6775 5.98019C11.4524 6.13433 12.1642 6.5148 12.7229 7.07347C13.2816 7.63215 13.6621 8.34395 13.8162 9.11886C13.9703 9.89377 13.8912 10.697 13.5889 11.4269C13.2865 12.1569 12.7745 12.7808 12.1176 13.2197C11.4606 13.6587 10.6883 13.893 9.8982 13.893C8.83908 13.8918 7.82368 13.4705 7.07477 12.7216C6.32586 11.9727 5.90461 10.9573 5.90343 9.8982Z" fill="#034EA2"/>
</svg>
